<?xml version="1.0" encoding="utf-8"?>
<!-- Generator: Adobe Illustrator 13.0.2, SVG Export Plug-In . SVG Version: 6.00 Build 14948)  -->
<!DOCTYPE svg PUBLIC "-//W3C//DTD SVG 1.1//EN" "http://www.w3.org/Graphics/SVG/1.1/DTD/svg11.dtd">
<svg version="1.1" id="Layer_1" xmlns="http://www.w3.org/2000/svg" xmlns:xlink="http://www.w3.org/1999/xlink" x="0px" y="0px"
	 width="637.796px" height="99.613px" viewBox="0 0 637.796 99.613" enable-background="new 0 0 637.796 99.613"
	 xml:space="preserve">
<g>
	<path fill-rule="evenodd" clip-rule="evenodd" fill="#003468" d="M137.683,99.592L77.474,4.602
		c-3.694-6.167-13.57-6.167-17.763,0.249L0,99.592h19.736l18.016-28.615h38.492l10.117-16.283H47.869l20.97-32.832l49.108,77.73
		H137.683L137.683,99.592z"/>
	<path fill-rule="evenodd" clip-rule="evenodd" fill="#003468" d="M637.796,99.613L577.581,4.617
		c-3.705-6.174-13.577-6.174-17.766,0.249l-59.715,94.747h19.743l18-28.628h38.493l10.12-16.279h-38.475l20.973-32.816
		l49.096,77.724H637.796L637.796,99.613z"/>
	<g>
		<g>
			<path fill-rule="evenodd" clip-rule="evenodd" fill="#003468" d="M225.94,59.135c16.311,0,29.55-13.231,29.55-29.55
				c0-16.318-13.239-29.558-29.55-29.558L144.792,0v99.592h18.241V16.248h62.907c7.385,0,13.348,5.968,13.348,13.337
				c0,7.358-5.963,13.336-13.348,13.336h-51.883l58.54,56.565h23.532l-41.891-40.309L225.94,59.135L225.94,59.135z"/>
		</g>
	</g>
	<polygon fill-rule="evenodd" clip-rule="evenodd" fill="#003468" points="433.518,0.019 422.829,16.237 466.903,16.237 
		466.903,99.592 485.151,99.592 485.151,16.237 524.359,16.237 524.359,0.035 	"/>
</g>
<path fill-rule="evenodd" clip-rule="evenodd" fill="#003468" d="M391.616,41.704h-0.07l0,0h-51.93c0,0-0.008,0-0.015,0
	c-6.984,0-12.652-5.66-12.652-12.644c0-6.984,5.668-12.644,12.652-12.644l64.503-0.008L414.21,0.117l-74.608,0.015
	c-15.984,0-28.939,12.955-28.939,28.928c0,15.971,12.955,28.926,28.939,28.926c0.023,0,0.038,0,0.07,0l0,0h51.913l0,0
	c0.016,0,0.024,0,0.031,0c6.983,0,12.651,5.66,12.651,12.652c0,6.987-5.668,12.636-12.651,12.636c-0.007,0-0.016,0-0.031,0l0,0
	l-68.187,0.055l-10.12,16.284l78.338-0.048c15.976,0,28.931-12.947,28.931-28.927S407.592,41.704,391.616,41.704z"/>
<g>
	<polygon fill-rule="evenodd" clip-rule="evenodd" fill="#003468" points="274.604,0.241 274.502,99.613 292.674,99.613 
		292.674,0.229 	"/>
</g>
</svg>
